<?xml version="1.0" encoding="UTF-8" standalone="no"?>
<!-- Created with Inkscape (http://www.inkscape.org/) -->

<svg
   xmlns:dc="http://purl.org/dc/elements/1.1/"
   xmlns:cc="http://creativecommons.org/ns#"
   xmlns:rdf="http://www.w3.org/1999/02/22-rdf-syntax-ns#"
   xmlns:svg="http://www.w3.org/2000/svg"
   xmlns="http://www.w3.org/2000/svg"
   xmlns:sodipodi="http://sodipodi.sourceforge.net/DTD/sodipodi-0.dtd"
   xmlns:inkscape="http://www.inkscape.org/namespaces/inkscape"
   width="744.09448819"
   height="1052.3622047"
   id="svg2"
   version="1.1"
   inkscape:version="0.48.2 r9819"
   sodipodi:docname="computer-inkscape.svg">
  <defs
     id="defs4">
    <inkscape:path-effect
       effect="skeletal"
       id="path-effect3854"
       is_visible="true"
       pattern="M 0,-4 0,6 10,1 z"
       copytype="single_stretched"
       prop_scale="1"
       scale_y_rel="false"
       spacing="0"
       normal_offset="0"
       tang_offset="0"
       prop_units="false"
       vertical_pattern="false"
       fuse_tolerance="0" />
    <inkscape:path-effect
       effect="skeletal"
       id="path-effect3846"
       is_visible="true"
       pattern="M 0,5 C 0,2.24 2.24,0 5,0 7.76,0 10,2.24 10,5 10,7.76 7.76,10 5,10 2.24,10 0,7.76 0,5 z"
       copytype="single_stretched"
       prop_scale="1"
       scale_y_rel="false"
       spacing="0"
       normal_offset="0"
       tang_offset="0"
       prop_units="false"
       vertical_pattern="false"
       fuse_tolerance="0" />
    <inkscape:path-effect
       effect="skeletal"
       id="path-effect3842"
       is_visible="true"
       pattern="M 0,5 C 0,2.24 2.24,0 5,0 7.76,0 10,2.24 10,5 10,7.76 7.76,10 5,10 2.24,10 0,7.76 0,5 z"
       copytype="single_stretched"
       prop_scale="1"
       scale_y_rel="false"
       spacing="0"
       normal_offset="0"
       tang_offset="0"
       prop_units="false"
       vertical_pattern="false"
       fuse_tolerance="0" />
    <inkscape:path-effect
       effect="skeletal"
       id="path-effect3838"
       is_visible="true"
       pattern="m 0,-5 c 0,-2.76 2.24,-5 5,-5 2.76,0 5,2.24 5,5 C 10,-2.24 7.76,0 5,0 2.24,0 0,-2.24 0,-5 z"
       copytype="single_stretched"
       prop_scale="1"
       scale_y_rel="false"
       spacing="0"
       normal_offset="0"
       tang_offset="0"
       prop_units="false"
       vertical_pattern="false"
       fuse_tolerance="0" />
    <inkscape:path-effect
       effect="skeletal"
       id="path-effect3834"
       is_visible="true"
       pattern="M 0,0 0,10 10,5 z"
       copytype="single_stretched"
       prop_scale="1"
       scale_y_rel="false"
       spacing="0"
       normal_offset="0"
       tang_offset="0"
       prop_units="false"
       vertical_pattern="false"
       fuse_tolerance="0" />
  </defs>
  <sodipodi:namedview
     id="base"
     pagecolor="#ffffff"
     bordercolor="#666666"
     borderopacity="1.0"
     inkscape:pageopacity="0.0"
     inkscape:pageshadow="2"
     inkscape:zoom="1.4"
     inkscape:cx="286.95406"
     inkscape:cy="555.20859"
     inkscape:document-units="px"
     inkscape:current-layer="layer1"
     showgrid="false"
     inkscape:window-width="1280"
     inkscape:window-height="934"
     inkscape:window-x="1272"
     inkscape:window-y="-8"
     inkscape:window-maximized="1" />
  <metadata
     id="metadata7">
    <rdf:RDF>
      <cc:Work
         rdf:about="">
        <dc:format>image/svg+xml</dc:format>
        <dc:type
           rdf:resource="http://purl.org/dc/dcmitype/StillImage" />
        <dc:title></dc:title>
      </cc:Work>
    </rdf:RDF>
  </metadata>
  <g
     inkscape:label="Layer 1"
     inkscape:groupmode="layer"
     id="layer1">
    <rect
       style="fill:#ff0000;fill-opacity:1;stroke:none"
       id="rect3757"
       width="524.26917"
       height="514.16766"
       x="424.19836"
       y="966.24011"
       ry="9.8994951" />
    <g
       id="g3839">
      <path
         inkscape:export-ydpi="90"
         inkscape:export-xdpi="90"
         inkscape:export-filename="C:\GitHub\gts-bones\library\images\computer.png"
         transform="matrix(1.3344828,0,0,0.42974765,193.4331,324.93362)"
         d="m 207.08128,703.35449 a 73.236061,7.5761442 0 1 1 -146.472126,0 73.236061,7.5761442 0 1 1 146.472126,0 z"
         sodipodi:ry="7.5761442"
         sodipodi:rx="73.236061"
         sodipodi:cy="703.35449"
         sodipodi:cx="133.84521"
         id="path3833"
         style="fill:#000000;fill-opacity:0.1372549;stroke:none"
         sodipodi:type="arc" />
      <path
         inkscape:export-ydpi="90"
         inkscape:export-xdpi="90"
         inkscape:export-filename="C:\GitHub\gts-bones\library\images\computer.png"
         sodipodi:nodetypes="ccccc"
         inkscape:connector-curvature="0"
         id="rect3763"
         d="m 342.50033,580.66798 59.32111,0 16.59176,41.3955 -92.73192,0 z"
         style="fill:#e5e5e5;fill-opacity:1;stroke:none" />
      <path
         inkscape:export-ydpi="90"
         inkscape:export-xdpi="90"
         inkscape:export-filename="C:\GitHub\gts-bones\library\images\computer.png"
         sodipodi:nodetypes="ccccccc"
         inkscape:connector-curvature="0"
         id="rect3766"
         d="m 325.56759,621.78509 92.73201,0 13.18249,2.44188 0,2.20931 -118.8697,0 0,-2.20931 z"
         style="fill:#e5e5e5;fill-opacity:1;stroke:none" />
      <path
         inkscape:export-ydpi="90"
         inkscape:export-xdpi="90"
         inkscape:export-filename="C:\GitHub\gts-bones\library\images\computer.png"
         sodipodi:nodetypes="ccccc"
         inkscape:connector-curvature="0"
         id="rect3823"
         d="m 341.53843,583.17003 60.99796,-0.23256 2.27284,5.34887 -65.43,0 z"
         style="fill:#d1d1d1;fill-opacity:1;stroke:none" />
      <rect
         inkscape:export-ydpi="90"
         inkscape:export-xdpi="90"
         inkscape:export-filename="C:\GitHub\gts-bones\library\images\computer.png"
         ry="10.575822"
         y="376.18109"
         x="192.04724"
         height="207.19975"
         width="360"
         id="rect2985"
         style="fill:#4b4b4b;fill-opacity:1;stroke:none" />
      <rect
         inkscape:export-ydpi="90"
         inkscape:export-xdpi="90"
         inkscape:export-filename="C:\GitHub\gts-bones\library\images\computer.png"
         style="fill:#ffffe5;fill-opacity:1;stroke:none"
         id="rect2987"
         width="342"
         height="188.782"
         x="201.04724"
         y="385.38998"
         ry="0" />
      <path
         inkscape:export-ydpi="90"
         inkscape:export-xdpi="90"
         inkscape:export-filename="C:\GitHub\gts-bones\library\images\computer.png"
         transform="matrix(0.11621146,0,0,0.11890857,331.07767,537.09102)"
         d="m 375.77675,354.34677 a 23.233509,23.233509 0 1 1 -46.46702,0 23.233509,23.233509 0 1 1 46.46702,0 z"
         sodipodi:ry="23.233509"
         sodipodi:rx="23.233509"
         sodipodi:cy="354.34677"
         sodipodi:cx="352.54324"
         id="path3761"
         style="fill:#ffffff;fill-opacity:1;stroke:none"
         sodipodi:type="arc" />
      <path
         inkscape:export-ydpi="90"
         inkscape:export-xdpi="90"
         inkscape:export-filename="C:\GitHub\gts-bones\library\images\computer.png"
         sodipodi:nodetypes="sssssssss"
         inkscape:connector-curvature="0"
         id="rect3779"
         d="m 276.57977,641.1531 189.64287,-0.20015 c 1.2465,-7.6e-4 1.93717,0.64973 2.25,1.40112 l 13.5,32.42591 c 0.31282,0.75137 -1.0035,1.40112 -2.25,1.40112 l -215.35715,0 c -1.2465,0 -2.53634,-0.64565 -2.25,-1.40112 l 12.21428,-32.22576 c 0.28634,-0.75546 1.00351,-1.39981 2.25,-1.40112 z"
         style="fill:#e5e5e5;fill-opacity:1;stroke:none" />
      <path
         inkscape:export-ydpi="90"
         inkscape:export-xdpi="90"
         inkscape:export-filename="C:\GitHub\gts-bones\library\images\computer.png"
         sodipodi:nodetypes="ccccc"
         inkscape:connector-curvature="0"
         id="rect3783"
         d="m 269.55071,667.5718 204.4494,0 2.01219,5.6425 -208.47378,0 z"
         style="fill:#efefef;fill-opacity:1;stroke:#d1d1d1;stroke-width:0.25321782;stroke-miterlimit:4;stroke-opacity:1;stroke-dasharray:none" />
      <path
         inkscape:export-ydpi="90"
         inkscape:export-xdpi="90"
         inkscape:export-filename="C:\GitHub\gts-bones\library\images\computer.png"
         sodipodi:nodetypes="ccccc"
         inkscape:connector-curvature="0"
         id="rect3785"
         d="m 272.82045,659.73354 198.04696,0 2.01511,5.64249 -202.07718,0 z"
         style="fill:#efefef;fill-opacity:1;stroke:#d1d1d1;stroke-width:0.25321782;stroke-miterlimit:4;stroke-opacity:1;stroke-dasharray:none" />
      <path
         inkscape:export-ydpi="90"
         inkscape:export-xdpi="90"
         inkscape:export-filename="C:\GitHub\gts-bones\library\images\computer.png"
         sodipodi:nodetypes="ccccc"
         inkscape:connector-curvature="0"
         id="rect3787"
         d="m 275.94023,651.79616 191.88906,0 2.02611,5.64249 -195.94128,0 z"
         style="fill:#efefef;fill-opacity:1;stroke:#d1d1d1;stroke-width:0.25321782;stroke-miterlimit:4;stroke-opacity:1;stroke-dasharray:none" />
      <path
         inkscape:export-ydpi="90"
         inkscape:export-xdpi="90"
         inkscape:export-filename="C:\GitHub\gts-bones\library\images\computer.png"
         sodipodi:nodetypes="ccccc"
         inkscape:connector-curvature="0"
         id="rect3861"
         d="m 278.69859,644.0242 186.33167,0 2.02689,5.64249 -190.38544,0 z"
         style="fill:#efefef;fill-opacity:1;stroke:#d1d1d1;stroke-width:0.25321782;stroke-miterlimit:4;stroke-opacity:1;stroke-dasharray:none" />
      <g
         inkscape:export-ydpi="90"
         inkscape:export-xdpi="90"
         inkscape:export-filename="C:\GitHub\gts-bones\library\images\computer.png"
         transform="translate(-4,6)"
         id="g3811">
        <rect
           style="fill:#5e5e5e;fill-opacity:1;stroke:#d1d1d1;stroke-width:0.22504343;stroke-linecap:butt;stroke-linejoin:miter;stroke-miterlimit:4;stroke-opacity:1;stroke-dasharray:none;stroke-dashoffset:21.74999952"
           id="rect2996"
           width="166.19505"
           height="7.7749567"
           x="214.69717"
           y="445.57925"
           ry="3.8874784" />
        <rect
           ry="3.8992121"
           y="462.7269"
           x="214.68544"
           height="7.7984242"
           width="132.93892"
           id="rect3767"
           style="fill:#5e5e5e;fill-opacity:1;stroke:#d1d1d1;stroke-width:0.20157553;stroke-linecap:butt;stroke-linejoin:miter;stroke-miterlimit:4;stroke-opacity:1;stroke-dasharray:none;stroke-dashoffset:21.74999952" />
        <rect
           ry="1.9209018"
           y="479.43616"
           x="214.66376"
           height="3.8418036"
           width="166.20415"
           id="rect3769"
           style="fill:#5e5e5e;fill-opacity:1;stroke:#d1d1d1;stroke-width:0.15819648;stroke-linecap:butt;stroke-linejoin:miter;stroke-miterlimit:4;stroke-opacity:1;stroke-dasharray:none;stroke-dashoffset:21.74999952" />
        <rect
           style="fill:#5e5e5e;fill-opacity:1;stroke:#d1d1d1;stroke-width:0.15819648;stroke-linecap:butt;stroke-linejoin:miter;stroke-miterlimit:4;stroke-opacity:1;stroke-dasharray:none;stroke-dashoffset:21.74999952"
           id="rect3771"
           width="166.20415"
           height="3.8418036"
           x="214.66376"
           y="489.03259"
           ry="1.9209018" />
        <rect
           ry="1.9209018"
           y="500.14426"
           x="214.66376"
           height="3.8418036"
           width="166.20415"
           id="rect3773"
           style="fill:#5e5e5e;fill-opacity:1;stroke:#d1d1d1;stroke-width:0.15819648;stroke-linecap:butt;stroke-linejoin:miter;stroke-miterlimit:4;stroke-opacity:1;stroke-dasharray:none;stroke-dashoffset:21.74999952" />
        <rect
           style="fill:#5e5e5e;fill-opacity:1;stroke:#d1d1d1;stroke-width:0.11538459;stroke-linecap:butt;stroke-linejoin:miter;stroke-miterlimit:4;stroke-opacity:1;stroke-dasharray:none;stroke-dashoffset:21.74999952"
           id="rect3775"
           width="87.444191"
           height="3.8846154"
           x="214.64716"
           y="510.70303"
           ry="1.9423077" />
        <g
           id="g3798"
           transform="translate(-8.0812204,16.162441)">
          <g
             transform="translate(0,-2)"
             id="g3782">
            <path
               sodipodi:type="arc"
               style="fill:none;stroke:#5e5e5e;stroke-width:2.6502459;stroke-linecap:butt;stroke-linejoin:miter;stroke-miterlimit:4;stroke-opacity:1;stroke-dasharray:none;stroke-dashoffset:21.74999952"
               id="path3777"
               sodipodi:cx="228.54701"
               sodipodi:cy="512.43567"
               sodipodi:rx="5.3033009"
               sodipodi:ry="5.0507627"
               d="m 233.85031,512.43567 c 0,2.78946 -2.37437,5.05076 -5.3033,5.05076 -2.92893,0 -5.3033,-2.2613 -5.3033,-5.05076 0,-2.78946 2.37437,-5.05076 5.3033,-5.05076 2.92893,0 5.3033,2.2613 5.3033,5.05076 z"
               transform="matrix(0.36823002,0,0,0.38664152,140.96084,317.04186)" />
            <rect
               ry="1.9423077"
               y="513.22845"
               x="234.34334"
               height="3.8846154"
               width="87.444191"
               id="rect3780"
               style="fill:#5e5e5e;fill-opacity:1;stroke:#d1d1d1;stroke-width:0.11538459;stroke-linecap:butt;stroke-linejoin:miter;stroke-miterlimit:4;stroke-opacity:1;stroke-dasharray:none;stroke-dashoffset:21.74999952" />
          </g>
          <g
             transform="translate(0,16.667517)"
             id="g3786">
            <path
               transform="matrix(0.36823002,0,0,0.38664152,140.96084,317.04186)"
               d="m 233.85031,512.43567 c 0,2.78946 -2.37437,5.05076 -5.3033,5.05076 -2.92893,0 -5.3033,-2.2613 -5.3033,-5.05076 0,-2.78946 2.37437,-5.05076 5.3033,-5.05076 2.92893,0 5.3033,2.2613 5.3033,5.05076 z"
               sodipodi:ry="5.0507627"
               sodipodi:rx="5.3033009"
               sodipodi:cy="512.43567"
               sodipodi:cx="228.54701"
               id="path3788"
               style="fill:none;stroke:#5e5e5e;stroke-width:2.6502459;stroke-linecap:butt;stroke-linejoin:miter;stroke-miterlimit:4;stroke-opacity:1;stroke-dasharray:none;stroke-dashoffset:21.74999952"
               sodipodi:type="arc" />
            <rect
               style="fill:#5e5e5e;fill-opacity:1;stroke:#d1d1d1;stroke-width:0.11538459;stroke-linecap:butt;stroke-linejoin:miter;stroke-miterlimit:4;stroke-opacity:1;stroke-dasharray:none;stroke-dashoffset:21.74999952"
               id="rect3790"
               width="87.444191"
               height="3.8846154"
               x="234.34334"
               y="513.22845"
               ry="1.9423077" />
          </g>
          <g
             id="g3792"
             transform="translate(0,7.5761441)">
            <path
               sodipodi:type="arc"
               style="fill:none;stroke:#5e5e5e;stroke-width:2.6502459;stroke-linecap:butt;stroke-linejoin:miter;stroke-miterlimit:4;stroke-opacity:1;stroke-dasharray:none;stroke-dashoffset:21.74999952"
               id="path3794"
               sodipodi:cx="228.54701"
               sodipodi:cy="512.43567"
               sodipodi:rx="5.3033009"
               sodipodi:ry="5.0507627"
               d="m 233.85031,512.43567 c 0,2.78946 -2.37437,5.05076 -5.3033,5.05076 -2.92893,0 -5.3033,-2.2613 -5.3033,-5.05076 0,-2.78946 2.37437,-5.05076 5.3033,-5.05076 2.92893,0 5.3033,2.2613 5.3033,5.05076 z"
               transform="matrix(0.36823002,0,0,0.38664152,140.96084,317.04186)" />
            <rect
               ry="1.9423077"
               y="513.22845"
               x="234.34334"
               height="3.8846154"
               width="87.444191"
               id="rect3796"
               style="fill:#5e5e5e;fill-opacity:1;stroke:#d1d1d1;stroke-width:0.11538459;stroke-linecap:butt;stroke-linejoin:miter;stroke-miterlimit:4;stroke-opacity:1;stroke-dasharray:none;stroke-dashoffset:21.74999952" />
          </g>
        </g>
        <rect
           style="fill:#5e5e5e;fill-opacity:1;stroke:none"
           id="rect3809"
           width="166.42"
           height="44.446712"
           x="214.58466"
           y="393.23764"
           ry="9.0133753" />
      </g>
      <rect
         inkscape:export-ydpi="90"
         inkscape:export-xdpi="90"
         inkscape:export-filename="C:\GitHub\gts-bones\library\images\computer.png"
         ry="0"
         y="400.22552"
         x="390.41183"
         height="155.24023"
         width="142.86517"
         id="rect3830"
         style="fill:none;stroke:#5e5e5e;stroke-width:1;stroke-miterlimit:4;stroke-opacity:1;stroke-dasharray:none" />
      <path
         inkscape:export-ydpi="90"
         inkscape:export-xdpi="90"
         inkscape:export-filename="C:\GitHub\gts-bones\library\images\computer.png"
         sodipodi:nodetypes="caaac"
         inkscape:connector-curvature="0"
         inkscape:original-d="m 225.26402,431.66405 c 7.48523,-5.32334 19.94312,-10.67979 30.88732,-11.27636 13.19383,-0.71918 25.47294,11.71644 38.49335,9.46629 11.58465,-2.00203 18.48163,-15.15945 29.43563,-19.42817 12.76762,-4.97547 28.00387,-0.0673 40.58475,-6.54095"
         inkscape:path-effect="#path-effect3854"
         id="path3852"
         d="m 222.36622,427.5894 5.7956,8.1493 c 3.81711,-2.9463 8.20627,-5.32986 12.84945,-7.31394 5.00577,-2.10156 10.15423,-3.69366 15.35206,-4.148 2.63405,-0.29092 5.51674,0.20167 8.44889,0.99797 10e-6,0 10e-6,0 10e-6,0 3.05587,0.85088 6.14731,2.11717 9.37421,3.37962 3.17036,1.25474 6.50328,2.52536 10.07254,3.35889 3.44737,0.81902 7.15913,1.07935 10.82184,0.36441 3.25937,-0.68263 6.19228,-2.11267 8.74428,-3.89439 2.63007,-1.82837 4.91909,-3.93255 7.0928,-6.02279 0,0 1e-5,0 1e-5,0 4.41892,-4.17607 8.46864,-8.56608 13.66212,-10.75234 5.99881,-2.62548 12.99582,-2.85885 19.88287,-3.30124 6.92963,-0.41706 14.15244,-1.15039 20.20217,-4.52203 -6.26021,2.96259 -13.33405,3.15485 -20.24252,3.14256 -6.87459,-0.0399 -14.01285,-0.25741 -20.84194,2.11607 -6.00622,2.17821 -10.77109,6.52642 -15.30052,10.37585 0,0 0,0 0,0 -2.27823,1.90257 -4.53134,3.72725 -6.92344,5.14542 -2.29438,1.35119 -4.72091,2.36544 -7.14809,2.66555 -2.74166,0.39185 -5.64418,-0.0641 -8.48254,-0.89751 -2.98885,-0.89053 -5.93039,-2.26612 -8.98636,-3.69725 -3.07775,-1.45722 -6.26742,-3.00452 -9.74973,-4.25063 -3.36465,-1.22329 -7.08168,-2.0553 -11.05058,-1.9863 -6.28434,0.17156 -12.39934,1.56516 -18.12948,3.58328 -5.32169,1.83973 -10.56276,4.26796 -15.44365,7.5075 z"
         style="fill:#b1b1b1;fill-opacity:1;fill-rule:evenodd;stroke:none" />
      <path
         inkscape:export-ydpi="90"
         inkscape:export-xdpi="90"
         inkscape:export-filename="C:\GitHub\gts-bones\library\images\computer.png"
         inkscape:connector-curvature="0"
         id="path3873"
         d="m 393.95949,550.82144 17.67767,-26.26396 17.1726,12.12183 19.1929,-30.30458 8.58629,16.16244 16.16244,-30.30458 22.22336,42.93149 19.1929,-71.72083 10.6066,12.6269 0,0"
         style="fill:none;stroke:#36db61;stroke-width:3;stroke-linecap:butt;stroke-linejoin:miter;stroke-miterlimit:4;stroke-opacity:1;stroke-dasharray:none" />
      <path
         inkscape:export-ydpi="90"
         inkscape:export-xdpi="90"
         inkscape:export-filename="C:\GitHub\gts-bones\library\images\computer.png"
         inkscape:connector-curvature="0"
         id="path3875"
         d="m 394.28572,508.79075 17.14285,-37.14286 16.42857,-17.85714 15,14.28572 28.57143,-0.71429 19.28572,23.57143 L 510,419.50504 l 16.42857,-15.71429 0,0"
         style="fill:none;stroke:#c10828;stroke-width:3;stroke-linecap:butt;stroke-linejoin:miter;stroke-miterlimit:4;stroke-opacity:1;stroke-dasharray:none" />
    </g>
  </g>
</svg>
